<svg width="480" height="360" viewBox="0 0 480 360" fill="none" xmlns="http://www.w3.org/2000/svg">
  <rect width="480" height="360" rx="36" fill="#111827"/>
  <rect x="32" y="36" width="416" height="288" rx="28" fill="url(#paint0_linear)" fill-opacity="0.9"/>
  <rect x="48" y="52" width="384" height="256" rx="22" fill="#0f172a" stroke="#818cf8" stroke-opacity="0.22" stroke-width="2"/>
  <rect x="72" y="84" width="336" height="18" rx="9" fill="#c7d2fe" fill-opacity="0.9"/>
  <rect x="72" y="116" width="280" height="16" rx="8" fill="#e0e7ff" fill-opacity="0.18"/>
  <rect x="72" y="142" width="320" height="16" rx="8" fill="#e0e7ff" fill-opacity="0.12"/>
  <rect x="72" y="168" width="260" height="16" rx="8" fill="#e0e7ff" fill-opacity="0.12"/>
  <rect x="72" y="194" width="240" height="16" rx="8" fill="#e0e7ff" fill-opacity="0.12"/>
  <rect x="72" y="220" width="300" height="16" rx="8" fill="#e0e7ff" fill-opacity="0.12"/>
  <circle cx="394" cy="102" r="14" fill="#a78bfa" fill-opacity="0.95"/>
  <path d="M394 97L401 104L394 111" stroke="#f8fafc" stroke-width="2" stroke-linecap="round" stroke-linejoin="round"/>
  <path d="M398 99L388 109" stroke="#f8fafc" stroke-width="2" stroke-linecap="round"/>
  <defs>
    <linearGradient id="paint0_linear" x1="248" y1="36" x2="248" y2="324" gradientUnits="userSpaceOnUse">
      <stop stop-color="#475569" stop-opacity="0.18"/>
      <stop offset="1" stop-color="#0f172a" stop-opacity="0.18"/>
    </linearGradient>
  </defs>
</svg>
